<svg width="33" height="32" viewBox="0 0 33 32" fill="none" xmlns="http://www.w3.org/2000/svg">
<g filter="url(#filter0_d_194_346)">
<circle cx="16.916" cy="12" r="12" fill="#555A7B"/>
<path d="M23.1702 16.0278C23.1314 15.735 22.9621 15.4826 22.7059 15.3353L19.6961 13.6047C19.3275 13.3927 18.8598 13.4544 18.5589 13.7549L17.9661 14.3469C17.8083 14.5045 17.5588 14.5184 17.3857 14.3793C16.9183 14.0038 16.4581 13.5904 16.018 13.1508C15.5778 12.7113 15.1639 12.2518 14.7879 11.785C14.6485 11.6121 14.6625 11.3629 14.8203 11.2053L15.4131 10.6133C15.714 10.3129 15.7758 9.84592 15.5635 9.47771L13.8306 6.472C13.6831 6.21607 13.4303 6.04709 13.1371 6.00835C12.844 5.96954 12.5559 6.06719 12.3468 6.27602L11.4535 7.1681C10.83 7.79074 10.82 8.92965 11.4253 10.3751C12.0073 11.7649 13.0934 13.2949 14.4835 14.6832C15.8737 16.0715 17.4058 17.1561 18.7975 17.7373C19.51 18.0349 20.148 18.1835 20.6867 18.1835C21.2424 18.1835 21.6923 18.0253 22.0089 17.7091L22.9021 16.8171C23.1112 16.6082 23.2089 16.3205 23.1702 16.0278ZM19.4989 13.9467L22.5087 15.6773C22.6575 15.7629 22.7558 15.9095 22.7783 16.0795C22.7972 16.2222 22.7601 16.3628 22.676 16.476L18.676 14.1962L18.8384 14.034C19.0131 13.8595 19.2848 13.8236 19.4989 13.9467ZM13.0853 6.39966C13.2556 6.42216 13.4024 6.52031 13.4881 6.66896L15.221 9.67467C15.3443 9.88852 15.3084 10.1598 15.1336 10.3342L14.9844 10.4832L12.689 6.50189C12.7829 6.4325 12.8951 6.39482 13.0121 6.39482C13.0363 6.39482 13.0608 6.39643 13.0853 6.39966ZM21.7293 17.43C21.234 17.9247 20.221 17.9039 18.95 17.3731C17.6046 16.8113 16.1177 15.7569 14.7631 14.4041C13.4084 13.0513 12.3526 11.5664 11.79 10.2228C11.2584 8.95352 11.2377 7.94186 11.733 7.44719L12.3961 6.78492L14.695 10.7723L14.5408 10.9263C14.24 11.2267 14.2138 11.7022 14.4799 12.0325C14.8648 12.5102 15.2883 12.9804 15.7385 13.43C16.1887 13.8795 16.6595 14.3024 17.1379 14.6868C17.4685 14.9525 17.9447 14.9264 18.2456 14.626L18.3862 14.4855L22.3918 16.7685L21.7293 17.43Z" fill="white"/>
</g>
<defs>
<filter id="filter0_d_194_346" x="0.916016" y="0" width="32" height="32" filterUnits="userSpaceOnUse" color-interpolation-filters="sRGB">
<feFlood flood-opacity="0" result="BackgroundImageFix"/>
<feColorMatrix in="SourceAlpha" type="matrix" values="0 0 0 0 0 0 0 0 0 0 0 0 0 0 0 0 0 0 127 0" result="hardAlpha"/>
<feOffset dy="4"/>
<feGaussianBlur stdDeviation="2"/>
<feComposite in2="hardAlpha" operator="out"/>
<feColorMatrix type="matrix" values="0 0 0 0 0 0 0 0 0 0 0 0 0 0 0 0 0 0 0.25 0"/>
<feBlend mode="normal" in2="BackgroundImageFix" result="effect1_dropShadow_194_346"/>
<feBlend mode="normal" in="SourceGraphic" in2="effect1_dropShadow_194_346" result="shape"/>
</filter>
</defs>
</svg>
